<svg width="30" height="30" viewBox="0 0 30 30" fill="none" xmlns="http://www.w3.org/2000/svg">
<rect width="30" height="30.0003" fill="black" fill-opacity="0"/>
<rect width="30" height="30.0003" fill="black" fill-opacity="0"/>
<path d="M29.3709 0H0.629379C0.281962 0 0 0.281962 0 0.629379V29.3706C0 29.718 0.281962 30 0.629379 30H15.8997V19.9756H12.677C12.3985 19.9756 12.1728 19.7499 12.1728 19.4714V15.4075C12.1728 15.129 12.3985 14.9031 12.677 14.9031H15.9V12.0982C15.9 8.40253 18.2271 6.01467 21.8285 6.01467L25.0345 6.0197C25.3124 6.02001 25.538 6.24565 25.538 6.52383V10.2973C25.538 10.5758 25.3124 10.8014 25.0339 10.8014L22.8742 10.8024C21.386 10.8024 21.1135 11.3826 21.1135 12.5253V14.9031H24.8831C25.0169 14.9031 25.145 14.9563 25.2397 15.051C25.3341 15.1457 25.3873 15.2738 25.3873 15.4075L25.386 19.4717C25.386 19.7502 25.1604 19.9762 24.8819 19.9762H21.1132V30.0003H29.3706C29.718 30.0003 30 29.7184 30 29.3709V0.629379C30.0003 0.281647 29.7187 0 29.3709 0Z" fill="#BFC9CD"/>
</svg>
