<svg width="30" height="30" viewBox="0 0 30 30" fill="none" xmlns="http://www.w3.org/2000/svg">
<rect width="30" height="30" fill="black" fill-opacity="0"/>
<path fill-rule="evenodd" clip-rule="evenodd" d="M0 0V30H30V0H0ZM10.6604 22.5944C6.42917 22.5944 3.06593 19.2311 3.06593 15C3.06593 10.7689 6.42917 7.40558 10.6604 7.40558C12.7217 7.40558 14.4576 8.16501 15.7594 9.46695L13.6981 11.4198C13.1556 10.8773 12.1792 10.2264 10.6603 10.2264C8.05655 10.2264 5.99519 12.3962 5.99519 15C5.99519 17.6038 8.05655 19.7736 10.6603 19.7736C13.6981 19.7736 14.7829 17.6038 14.9999 16.5189H10.6603V13.9151H17.8207C17.9293 14.349 17.9293 14.6745 17.9293 15.217C17.9293 19.5566 15 22.5944 10.6604 22.5944ZM26.9341 16.0849H24.7642V18.2548H22.5944V16.0849H20.4245V13.9151H22.5944V11.7453H24.7642V13.9151H26.9341V16.0849Z" fill="#BFC9CD"/>
</svg>
