<svg width="30" height="30" viewBox="0 0 30 30" fill="none" xmlns="http://www.w3.org/2000/svg">
<rect width="30" height="30" fill="black" fill-opacity="0"/>
<rect width="30" height="30" fill="black" fill-opacity="0"/>
<path fill-rule="evenodd" clip-rule="evenodd" d="M20.1448 6.87695H9.85524C8.21307 6.87695 6.87675 8.21319 6.87675 9.85544V20.1449C6.87675 21.7874 8.21307 23.1238 9.85524 23.1238H20.1448C21.7872 23.1238 23.1236 21.7874 23.1236 20.1449V9.85544C23.1236 8.21327 21.7872 6.87695 20.1448 6.87695ZM14.9998 20.3486C12.051 20.3486 9.65159 17.9492 9.65159 15C9.65159 12.0512 12.051 9.65179 14.9998 9.65179C17.949 9.65179 20.3484 12.0512 20.3484 15C20.3484 17.9492 17.949 20.3486 14.9998 20.3486ZM20.5205 10.7577C19.8223 10.7577 19.2546 10.1901 19.2546 9.49231C19.2546 8.79448 19.8223 8.22679 20.5205 8.22679C21.2182 8.22679 21.7859 8.79448 21.7859 9.49231C21.7859 10.1901 21.2182 10.7577 20.5205 10.7577Z" fill="#BFC9CD"/>
<path fill-rule="evenodd" clip-rule="evenodd" d="M14.9998 11.9121C13.2975 11.9121 11.9112 13.2977 11.9112 15C11.9112 16.703 13.2975 18.089 14.9998 18.089C16.7028 18.089 18.0881 16.703 18.0881 15C18.0881 13.2977 16.7028 11.9121 14.9998 11.9121Z" fill="#BFC9CD"/>
<path fill-rule="evenodd" clip-rule="evenodd" d="M0 0V30H30V0H0ZM25.3833 20.1448C25.3833 23.0337 23.0337 25.3833 20.1448 25.3833H9.85525C6.96659 25.3833 4.6167 23.0337 4.6167 20.1448V9.85525C4.6167 6.96659 6.96659 4.6167 9.85525 4.6167H20.1448C23.0337 4.6167 25.3833 6.96659 25.3833 9.85525V20.1448Z" fill="#BFC9CD"/>
</svg>
