<svg width="51" height="51" viewBox="0 0 51 51" fill="none" xmlns="http://www.w3.org/2000/svg">
<rect width="50.5" height="50.5" fill="black" fill-opacity="0"/>
<rect width="50.5" height="50.5" fill="black" fill-opacity="0"/>
<path d="M25.25 0C21.033 0 16.859 1.061 13.177 3.069C12.692 3.334 12.513 3.941 12.778 4.426C13.043 4.91 13.648 5.09 14.135 4.825C17.524 2.977 21.367 2 25.25 2C38.07 2 48.5 12.43 48.5 25.25C48.5 38.07 38.07 48.5 25.25 48.5C12.43 48.5 2 38.07 2 25.25C2 18.989 4.455 13.115 8.913 8.711C9.306 8.323 9.31 7.69 8.922 7.297C8.533 6.904 7.9 6.901 7.508 7.289C2.667 12.071 0 18.45 0 25.25C0 39.173 11.327 50.5 25.25 50.5C39.173 50.5 50.5 39.173 50.5 25.25C50.5 11.327 39.173 0 25.25 0Z" fill="#BFC9CD"/>
<path d="M16.446 39.671C16.641 39.948 16.95 40.096 17.265 40.096C17.464 40.096 17.664 40.037 17.839 39.914L37.521 26.068C37.788 25.88 37.946 25.576 37.946 25.25C37.946 24.924 37.788 24.62 37.521 24.432L17.839 10.586C17.534 10.371 17.134 10.344 16.803 10.516C16.472 10.688 16.264 11.03 16.264 11.404V30.333C16.264 30.885 16.712 31.333 17.264 31.333C17.816 31.333 18.264 30.885 18.264 30.333V13.33L35.208 25.25L16.688 38.278C16.237 38.596 16.128 39.22 16.446 39.671Z" fill="#BFC9CD"/>
</svg>
